<svg xmlns="http://www.w3.org/2000/svg" viewBox="0 0 240 24" role="img" aria-label="Divider: wave">
<!-- Latitude Tutoring brand SVG asset. Themeable via CSS vars: lat-ink, lat-accent, lat-accent-2, lat-peach -->
  <path d="M 40.0 12.0 L 41.0 11.8 L 42.0 11.7 L 43.0 11.5 L 44.0 11.4 L 45.0 11.2 L 46.0 11.1 L 47.0 10.9 L 48.0 10.8 L 49.0 10.6 L 50.0 10.5 L 51.0 10.3 L 52.0 10.2 L 53.0 10.0 L 54.0 9.9 L 55.0 9.8 L 56.0 9.6 L 57.0 9.5 L 58.0 9.4 L 59.0 9.3 L 60.0 9.2 L 61.0 9.1 L 62.0 9.0 L 63.0 8.9 L 64.0 8.8 L 65.0 8.7 L 66.0 8.6 L 67.0 8.5 L 68.0 8.4 L 69.0 8.4 L 70.0 8.3 L 71.0 8.2 L 72.0 8.2 L 73.0 8.2 L 74.0 8.1 L 75.0 8.1 L 76.0 8.0 L 77.0 8.0 L 78.0 8.0 L 79.0 8.0 L 80.0 8.0 L 81.0 8.0 L 82.0 8.0 L 83.0 8.0 L 84.0 8.0 L 85.0 8.1 L 86.0 8.1 L 87.0 8.2 L 88.0 8.2 L 89.0 8.2 L 90.0 8.3 L 91.0 8.4 L 92.0 8.4 L 93.0 8.5 L 94.0 8.6 L 95.0 8.7 L 96.0 8.8 L 97.0 8.9 L 98.0 9.0 L 99.0 9.1 L 100.0 9.2 L 101.0 9.3 L 102.0 9.4 L 103.0 9.5 L 104.0 9.6 L 105.0 9.8 L 106.0 9.9 L 107.0 10.0 L 108.0 10.2 L 109.0 10.3 L 110.0 10.5 L 111.0 10.6 L 112.0 10.8 L 113.0 10.9 L 114.0 11.1 L 115.0 11.2 L 116.0 11.4 L 117.0 11.5 L 118.0 11.7 L 119.0 11.8 L 120.0 12.0 L 121.0 12.2 L 122.0 12.3 L 123.0 12.5 L 124.0 12.6 L 125.0 12.8 L 126.0 12.9 L 127.0 13.1 L 128.0 13.2 L 129.0 13.4 L 130.0 13.5 L 131.0 13.7 L 132.0 13.8 L 133.0 14.0 L 134.0 14.1 L 135.0 14.2 L 136.0 14.4 L 137.0 14.5 L 138.0 14.6 L 139.0 14.7 L 140.0 14.8 L 141.0 14.9 L 142.0 15.0 L 143.0 15.1 L 144.0 15.2 L 145.0 15.3 L 146.0 15.4 L 147.0 15.5 L 148.0 15.6 L 149.0 15.6 L 150.0 15.7 L 151.0 15.8 L 152.0 15.8 L 153.0 15.8 L 154.0 15.9 L 155.0 15.9 L 156.0 16.0 L 157.0 16.0 L 158.0 16.0 L 159.0 16.0 L 160.0 16.0 L 161.0 16.0 L 162.0 16.0 L 163.0 16.0 L 164.0 16.0 L 165.0 15.9 L 166.0 15.9 L 167.0 15.8 L 168.0 15.8 L 169.0 15.8 L 170.0 15.7 L 171.0 15.6 L 172.0 15.6 L 173.0 15.5 L 174.0 15.4 L 175.0 15.3 L 176.0 15.2 L 177.0 15.1 L 178.0 15.0 L 179.0 14.9 L 180.0 14.8 L 181.0 14.7 L 182.0 14.6 L 183.0 14.5 L 184.0 14.4 L 185.0 14.2 L 186.0 14.1 L 187.0 14.0 L 188.0 13.8 L 189.0 13.7 L 190.0 13.5 L 191.0 13.4 L 192.0 13.2 L 193.0 13.1 L 194.0 12.9 L 195.0 12.8 L 196.0 12.6 L 197.0 12.5 L 198.0 12.3 L 199.0 12.2 L 200.0 12.0" fill="none" stroke="var(--lat-ink,#2E2925)" stroke-width="1.4" stroke-linecap="round" opacity="0.8"/>
  <circle cx="200" cy="12" r="3.4" fill="var(--lat-accent,#C4724F)"/>
</svg>
